<?xml version="1.0" encoding="UTF-8"?>
<svg   enable-background="new 0 0 83.254 122.143" version="1.0" viewBox="0 0 83.254 122.143" xml:space="preserve" xmlns="http://www.w3.org/2000/svg">
<path d="m25.482 31.088s-0.663 0.088-0.999-0.782c-0.469-1.209 0.201-2.045 0.201-2.045s-0.983 0.511-1.113 1.954c-0.111 1.29 0.855 2.728 2.57 2.339 1.639-0.38 1.456-1.889 0.932-2.416-0.604-0.619-1.817-0.102-1.591 0.95z" fill="none"/>
<path d="m23.026 43.554c-1.812 0.322-2.154 2.121-1.512 3.316 0.724 1.348 1.883 1.428 1.883 1.428s-0.996-0.53-1.041-1.887c-0.036-0.985 0.645-1.171 0.645-1.171 0.215 1.116 1.605 1.11 1.94 0.263 0.279-0.729-0.163-2.26-1.915-1.949z" fill="none"/>
<path d="m29.742 36.378s0.728 0.917 0.222 2.225c-0.369 0.949-1.09 0.851-1.09 0.851 0.257-1.146-1.068-1.706-1.731-1.032-0.563 0.57-0.773 2.206 1.022 2.624 1.856 0.437 2.909-1.136 2.794-2.537-0.141-1.572-1.217-2.131-1.217-2.131z" fill="none"/>
<path d="m14.056 51.677c1.852 0.89 2.821-0.676 2.729-1.568-0.102-1.05-1.65-1.486-2.228-0.319 0 0-0.703-0.417-0.351-1.501 0.468-1.488 1.741-1.777 1.741-1.777s-1.321-0.267-2.537 1.004c-1.091 1.135-1.264 3.234 0.646 4.161z" fill="none"/>
<path d="m25.231 56.438c-0.872 0.519-0.624 2.038 0.633 2.076 0 0-0.081 0.776-1.168 0.911-1.494 0.196-2.258-0.803-2.258-0.803s0.298 1.263 1.902 1.81c1.433 0.493 3.337-0.203 3.369-2.251 0.03-1.973-1.733-2.178-2.478-1.743z" fill="none"/>
<path d="m41.154 30.133c1.705 0.54 2.748-0.34 2.748-0.34s-1.273 0.362-2.414-0.739c-0.834-0.797-0.418-1.51-0.418-1.51 1.087 0.768 2.26-0.371 1.842-1.356-0.356-0.842-1.973-1.767-3.193-0.075-1.259 1.754-0.077 3.532 1.435 4.02z" fill="none"/>
<path d="m50.212 20.224c-1.32 0.703-2.105 2.551-0.648 3.958 1.411 1.359 2.756 0.231 2.947-0.609 0.206-0.981-1.057-1.835-1.931-0.945 0 0-0.509-0.588 0.124-1.465 0.874-1.218 2.108-1.094 2.108-1.094s-1.113-0.636-2.6 0.155z" fill="none"/>
<path d="m45.866 16.502c0.668 0.953 0.112 1.574 0.112 1.574-0.924-0.972-2.305-0.073-2.086 0.982 0.185 0.904 1.609 2.137 3.141 0.706 1.586-1.49 0.766-3.486-0.632-4.257-1.579-0.872-2.786-0.208-2.786-0.208s1.33-0.108 2.251 1.203z" fill="none"/>
<path d="m34.128 28.318c-1.874 0.922-1.226 2.678-0.448 3.166 0.898 0.571 2.215-0.39 1.642-1.587 0 0 0.768-0.298 1.428 0.653 0.898 1.316 0.331 2.519 0.331 2.519s1.04-0.889 0.784-2.67c-0.229-1.581-1.801-3.039-3.737-2.081z" fill="none"/>
<path d="m30.797 64.376s-0.922-0.263-1.203-1.388c-0.2-0.811 0.331-1.086 0.331-1.086 0.365 0.887 1.53 0.642 1.652-0.123 0.103-0.654-0.529-1.854-1.93-1.278-1.448 0.586-1.415 2.137-0.669 3.019 0.837 0.993 1.819 0.856 1.819 0.856z" fill="none"/>
<path d="m38.725 36.531c0.71 0.488 0.491 1.064 0.491 1.064-0.891-0.427-1.603 0.548-1.181 1.218 0.371 0.581 1.672 1.057 2.356-0.335 0.71-1.446-0.378-2.609-1.553-2.778-1.323-0.186-1.98 0.593-1.98 0.593s0.892-0.424 1.867 0.238z" fill="none"/>
<path d="m62.36 51.435c-1.431-1.541-2.947-0.409-3.193 0.486-0.286 1.033 1.026 2.031 2.018 1.128 0 0 0.512 0.656-0.216 1.564-1.009 1.251-2.336 1.047-2.336 1.047s1.156 0.755 2.804-8e-3c1.46-0.679 2.413-2.625 0.923-4.217z" fill="none"/>
<path d="m66.444 21.218c1.046 0.657 2.562-0.455 1.904-1.838 0 0 0.895-0.345 1.649 0.758 1.043 1.518 0.382 2.903 0.382 2.903s1.206-1.027 0.908-3.079c-0.261-1.822-2.08-3.515-4.326-2.411-2.161 1.068-1.415 3.099-0.517 3.667z" fill="none"/>
<path d="m61.77 18.746c2.565 0.479 3.917-1.718 3.665-3.624-0.281-2.145-1.779-2.844-1.779-2.844s1.056 1.206 0.435 3.026c-0.448 1.318-1.443 1.223-1.443 1.223 0.284-1.577-1.561-2.267-2.424-1.312-0.738 0.818-0.918 3.066 1.546 3.531z" fill="none"/>
<path d="m57.511 9.402c1.819 0.245 2.69-1.356 2.449-2.681-0.273-1.5-1.354-1.934-1.354-1.934s0.785 0.814 0.411 2.112c-0.263 0.944-0.967 0.91-0.967 0.91 0.143-1.12-1.178-1.535-1.751-0.835-0.491 0.602-0.538 2.193 1.212 2.428z" fill="none"/>
<path d="m42.252 11.902c2.344-0.555 2.661-2.919 1.74-4.432-1.035-1.711-2.561-1.736-2.561-1.736s1.334 0.625 1.494 2.391c0.116 1.282-0.762 1.572-0.762 1.572-0.351-1.434-2.169-1.326-2.537-0.198-0.324 0.968 0.368 2.938 2.626 2.403z" fill="none"/>
<path d="m52.189 44.318c-1.495 0.345-1.703 1.857-1.116 2.827 0.655 1.089 1.632 1.106 1.632 1.106s-0.855-0.398-0.948-1.529c-0.077-0.814 0.477-0.993 0.477-0.993 0.232 0.912 1.38 0.843 1.627 0.129 0.206-0.618-0.236-1.878-1.672-1.54z" fill="none"/>
<path d="m72.398 28.677c-0.749 0.287-1.608 1.684-0.158 2.799 1.504 1.162 3.106 0.176 3.571-1.142 0.53-1.482-0.216-2.427-0.216-2.427s0.287 1.125-0.719 2.103c-0.728 0.707-1.333 0.32-1.333 0.32 0.695-0.93-0.266-1.987-1.145-1.653z" fill="none"/>
<path d="m56.356 58.147c-1.414 0.113-1.81 1.454-1.403 2.423 0.454 1.086 1.342 1.238 1.342 1.238s-0.728-0.48-0.662-1.529c0.051-0.756 0.578-0.848 0.578-0.848 0.084 0.871 1.143 0.969 1.46 0.339 0.272-0.529 0.052-1.733-1.315-1.623z" fill="none"/>
<path d="m52.037 42.513s-0.872-0.175-1.206-1.195c-0.252-0.733 0.215-1.031 0.215-1.031 0.411 0.793 1.471 0.479 1.528-0.235 0.056-0.613-0.629-1.675-1.88-1.043-1.295 0.651-1.157 2.087-0.404 2.848 0.847 0.853 1.747 0.656 1.747 0.656z" fill="none"/>
<path d="m73.517 48.227c-0.351-1.918-1.734-2.473-1.734-2.473s0.999 1.037 0.528 2.705c-0.339 1.211-1.238 1.167-1.238 1.167 0.183-1.427-1.508-1.971-2.245-1.069-0.63 0.766-0.688 2.808 1.556 3.105 2.329 0.317 3.449-1.731 3.133-3.435z" fill="none"/>
<path d="m66.182 58.222c1.313 0 1.848-0.848 1.848-0.848s-0.81 0.537-1.854 0.026c-0.756-0.369-0.621-0.955-0.621-0.955 0.922 0.285 1.485-0.765 0.975-1.355-0.437-0.506-1.767-0.795-2.242 0.654-0.48 1.503 0.735 2.48 1.894 2.478z" fill="none"/>
<path d="m46.916 5.965c1.767 0.208 2.112-1.35 1.784-2.062-0.38-0.828-1.774-0.743-1.917 0.385 0 0-0.69-0.144-0.718-1.131-0.042-1.359 0.925-1.952 0.925-1.952s-1.157 0.156-1.797 1.547c-0.569 1.238-0.109 3.007 1.723 3.213z" fill="none"/>
<path d="m42.396 87.693c-0.572 0.569-0.532 1.655 0.089 2.253 0 0-0.467-0.688-0.033-1.27 0.281-0.375 0.627-0.28 0.627-0.28s-0.244 0.347 0.046 0.814c0.292 0.482 0.887 0.564 1.371 0.196 0.49-0.37 0.597-1.177 0.028-1.77-0.563-0.597-1.501-0.582-2.128 0.057zm1.786 1.517c-0.591 0.284-0.901-0.221-0.871-0.505 0.033-0.329 0.53-0.466 0.714-0.093 0 0 0.224-0.127 0.119-0.475-0.149-0.482-0.56-0.575-0.56-0.575s0.42-0.08 0.811 0.331c0.345 0.36 0.395 1.026-0.213 1.317z" fill="none"/>
<path d="m38.379 89.326l1e-3 1e-3s-0.011-0.018-0.018-0.028c6e-3 0.01 0.016 0.026 0.017 0.027z" fill="none"/>
<path d="m38.073 55.252s-0.836-1.28-9e-3 -2.915c0.599-1.185 1.521-0.957 1.521-0.957-0.47 1.445 1.185 2.349 2.12 1.563 0.811-0.679 1.278-2.781-0.987-3.544-2.357-0.798-3.924 1.104-3.944 2.936-0.024 2.057 1.299 2.917 1.299 2.917z" fill="none"/>
<path d="m42.567 81.682s1.37-0.101 1.855 1.009c0.312 0.714-0.109 1.129-0.109 1.129s-0.301-0.638-1.218-0.615c-0.93 0.026-1.536 0.812-1.412 1.82 0.129 1.002 1.197 1.815 2.512 1.491 1.329-0.326 2.08-1.679 1.683-3.1-0.354-1.289-1.941-2.125-3.311-1.734zm1.381 4.44c-0.798 0.194-1.81-0.287-1.723-1.402 0.082-1.083 1.057-1.106 1.445-0.823 0.449 0.321 0.232 1.145-0.45 1.098 0 0 0 0.429 0.59 0.562 0.808 0.183 1.275-0.327 1.275-0.327s-0.232 0.67-1.137 0.892z" fill="none"/>
<path d="m47.103 78.239c-0.886-0.46-1.797-0.06-2.062 0.641s0.043 1.363 0.701 1.543c0.66 0.173 0.98-0.236 0.98-0.236s0.225 0.37-0.117 0.832c-0.533 0.718-1.498 0.407-1.498 0.407 0.916 0.519 2.192 0.188 2.67-0.672 0.528-0.957 0.219-2.061-0.674-2.515zm-0.446 0.62c-0.44-5e-3 -0.521 0.306-0.521 0.306 0.499 0.082 0.516 0.709 0.132 0.862-0.322 0.133-1.018-0.047-0.892-0.835 0.126-0.824 0.935-0.992 1.477-0.721 0.615 0.318 0.662 0.841 0.662 0.841s-0.254-0.445-0.858-0.453z" fill="none"/>
<path d="m48.361 54.33c1.046 0.66 2.569-0.458 1.902-1.844 0 0 0.89-0.342 1.65 0.757 1.04 1.516 0.38 2.906 0.38 2.906s1.205-1.027 0.909-3.085c-0.263-1.822-2.08-3.506-4.32-2.402-2.17 1.065-1.42 3.096-0.521 3.668z" fill="none"/>
<path d="m73.132 41.872c-1.177-0.43-1.073-1.325-1.073-1.325 1.428 0.276 2.078-1.371 1.232-2.167-0.723-0.686-2.754-0.893-3.221 1.326-0.48 2.308 1.481 3.573 3.207 3.385 1.943-0.219 2.605-1.552 2.605-1.552s-1.114 0.926-2.75 0.333z" fill="none"/>
<path d="m48.743 55.72s-1.35-0.098-2.11-1.652c-0.36 0.922-0.941 1.751-1.66 2.405 0.428 0.229 0.928 0.388 1.517 0.407 1.728 0.052 2.253-1.16 2.253-1.16z" fill="none"/>
<path d="m42.773 48.557s-1.397-0.607-1.614-2.424c-0.146-1.322 0.746-1.648 0.746-1.648 0.406 1.477 2.27 1.323 2.629 0.147 0.301-1.008-0.459-3.02-2.781-2.408-2.398 0.625-2.666 3.078-1.671 4.619 1.116 1.731 2.691 1.714 2.691 1.714z" fill="none"/>
<path d="m44.23 57.052c-0.813 0.538-1.741 0.868-2.704 0.89-2.304 0.057-4.219-1.097-5.142-2.845-0.035 0.124-0.073 0.248-0.118 0.371 0.343 1.939 1.407 5.821 1.782 6.992 0.322 0.996 1.203 3.193 1.77 4.425 0.327 0.713 0.955-0.144 1.225-0.411 0.019-0.018 0.039-0.031 0.057-0.042 0.275-0.293 0.33-0.449 0.463-0.805 0.094-0.257 0.121-0.729 0.085-1.118-0.032-0.281 0.065-0.84-0.057-1.251-0.221-0.768-0.234-0.946-0.394-1.147-0.154-0.199-0.128-0.428-0.039-0.607 0.093-0.175 0.199-0.456 0.217-0.588 0.022-0.13-0.035-0.125-0.087-0.296-0.037-0.174 0.245-0.272 0.245-0.272-0.078-0.054-0.269-0.341 0.07-0.497 0.326-0.157 0.895-0.185 0.895-0.185s1.138-1.413 2.852-0.092c0 0 0.3 0.037 0.459 0.042 0.136 6e-3 0.409 0.133 0.267 0.391 0 0 0.285 0.104 0.097 0.372 0 0 0.346 0.168 0.422 0.537 0.046 0.293-0.183 0.701 0.054 1.324 0.109 0.295 0.161 0.672 0.088 0.928-0.055 0.252 0.147 0.671 0.15 0.995 0.012 0.323 0.059 0.809 0.088 1.136 0.032 0.306 0.032 0.651 0.461 1.336 0.232 0.362 0.516 0.574 0.771 0.897 0.42 0.578 0.783-0.468 0.974-1.022 0.883-2.614 1.585-4.481 1.842-6.266 0.074-0.525 0.154-1.069 0.224-1.534-0.615 0.299-1.3 0.507-2.046 0.588-1.859 0.203-3.743-0.738-4.971-2.246z" fill="none"/>
<path d="m17.204 102.72c0-0.016-6e-3 -0.024-7e-3 -0.039l7e-3 0.875v-0.836z" fill="none"/>
<path d="m22.538 23.198c1.688-0.322 1.681-2.435 0.395-2.933-1.106-0.431-3.434 0.236-2.96 2.898 0.497 2.758 3.219 3.275 5.043 2.294 2.049-1.098 2.17-2.864 2.17-2.864s-0.808 1.512-2.869 1.584c-1.493 0.047-1.779-0.979-1.779-0.979z" fill="none"/>
<path d="m68.011 31.768c0.736 0.635 0.412 1.252 0.412 1.252-0.946-0.599-1.877 0.414-1.488 1.224 0.332 0.693 1.735 1.403 2.692-0.069 0.982-1.527-0.085-2.983-1.386-3.331-1.452-0.378-2.298 0.407-2.298 0.407s1.057-0.364 2.068 0.517z" fill="none"/>
<path d="m60.606 24.691c-1.796-0.705-3.089 0.708-3.177 2.13-0.094 1.602 0.901 2.318 0.901 2.318s-0.602-1.025 0.108-2.264c0.511-0.899 1.217-0.692 1.217-0.692-0.424 1.109 0.825 1.876 1.584 1.294 0.662-0.488 1.109-2.104-0.633-2.786z" fill="none"/>
<path d="m55.663 35.415c0.538 1.428 1.683 1.673 1.683 1.673s-0.923-0.667-0.787-2.018c0.094-0.984 0.795-1.077 0.795-1.077 0.063 1.135 1.448 1.322 1.886 0.524 0.382-0.682 0.151-2.264-1.63-2.187-1.846 0.076-2.427 1.809-1.947 3.085z" fill="none"/>
<path d="m51.913 27.052c-1.436-0.486-2.397 0.67-2.402 1.791-0.017 1.256 0.785 1.78 0.785 1.78s-0.509-0.779 0-1.776c0.364-0.726 0.924-0.59 0.924-0.59-0.283 0.887 0.725 1.437 1.298 0.958 0.487-0.409 0.783-1.698-0.605-2.163z" fill="none"/>
<path d="m49.85 8.453c-1.854-0.626-3.099 0.863-3.112 2.318-0.016 1.619 1.025 2.301 1.025 2.301s-0.654-1.009 0-2.296c0.473-0.938 1.198-0.766 1.198-0.766-0.377 1.149 0.925 1.86 1.672 1.242 0.638-0.536 1.01-2.194-0.783-2.799z" fill="none"/>
<path d="m18.589 33.324c2.495-0.759 2.68-3.335 1.58-4.91-1.237-1.772-2.89-1.698-2.89-1.698s1.486 0.591 1.775 2.488c0.209 1.368-0.711 1.752-0.711 1.752-0.474-1.534-2.431-1.299-2.752-0.056-0.286 1.071 0.591 3.152 2.998 2.424z" fill="none"/>
<path d="m18.218 55.162c-1.103-1.486-2.862-0.987-3.644 0.121-0.885 1.25-0.446 2.331-0.446 2.331s0.039-1.131 1.228-1.779c0.869-0.469 1.337 0.053 1.337 0.053-0.899 0.684-0.271 1.931 0.632 1.846 0.783-0.063 1.954-1.146 0.893-2.572z" fill="none"/>
<path d="m8.322 33.867c-1.659 0.134-2.127 1.722-1.648 2.856 0.529 1.274 1.569 1.454 1.569 1.454s-0.854-0.57-0.773-1.799c0.056-0.885 0.679-0.996 0.679-0.996 0.094 1.019 1.351 1.137 1.718 0.404 0.32-0.632 0.058-2.046-1.545-1.919z" fill="none"/>
<path d="m32.332 12.187c-1.955-0.661-3.257 0.912-3.274 2.437-0.018 1.71 1.083 2.422 1.083 2.422s-0.692-1.059-0.011-2.42c0.498-0.978 1.265-0.801 1.265-0.801-0.389 1.209 0.974 1.957 1.757 1.307 0.68-0.562 1.071-2.31-0.82-2.945z" fill="none"/>
<path d="m45.515 37.29s-0.925 0.034-1.267-1.211c-0.482-1.715 0.554-2.78 0.554-2.78s-1.42 0.564-1.795 2.542c-0.333 1.746 0.802 3.86 3.209 3.554 2.309-0.302 2.26-2.397 1.618-3.192-0.754-0.935-2.491-0.387-2.319 1.087z" fill="none"/>
<path d="m35.119 52.674s0.18 1.529-1.294 2.637c-1.072 0.811-1.813 0.195-1.813 0.195 1.077-1.104-0.013-2.653-1.221-2.362-1.029 0.256-2.397 1.946-0.679 3.651 1.777 1.77 4.049 0.755 4.889-0.902 0.931-1.854 0.118-3.219 0.118-3.219z" fill="none"/>
<path d="m17.018 20.796c0.888-2.078-0.883-3.065-1.861-2.927-1.144 0.169-1.552 1.889-0.235 2.473 0 0-0.428 0.785-1.63 0.459-1.669-0.449-2.049-1.834-2.049-1.834s-0.229 1.469 1.235 2.749c1.299 1.142 3.62 1.234 4.54-0.92z" fill="none"/>
<path d="m20.716 118.03c-0.187 0.187-0.276 0.419-0.276 0.696 7e-3 0.65 0.239 0.979 0.695 0.979 0.224 0 0.441-0.029 0.65-0.09v-1.884c-0.142 8e-3 -0.277 0.016-0.403 0.016-0.255 7e-3 -0.479 0.097-0.666 0.283z" fill="none"/>
<path d="m59.073 118.88c0 0.628 0.217 0.942 0.644 0.942 0.53 0 0.799-0.336 0.799-1.001 0-0.172-0.014-0.381-0.052-0.628l-0.06-0.434c-0.112-0.037-0.246-0.052-0.389-0.052-0.627 0-0.942 0.389-0.942 1.173z" fill="none"/>
<path d="m81.387 99.739c-0.388-0.105-0.723-0.158-1.005-0.158-0.838 6e-3 -1.44 0.311-1.861 0.938-0.365 0.553-0.566 1.314-0.566 2.327 0 0.877 0.182 1.599 0.479 2.097 0.299 0.489 0.705 0.744 1.206 0.747 1.409-0.023 2.046-0.825 2.077-2.771 0-0.476-0.052-1.126-0.159-1.944l-0.171-1.236z" fill="none"/>
<path d="m9.93 27.823c1.113-1.213 0.136-2.322-0.582-2.464-0.824-0.164-1.519 0.923-0.752 1.645 0 0-0.489 0.44-1.235-0.079-1.042-0.71-0.966-1.761-0.966-1.761s-0.512 0.955 0.182 2.194c0.617 1.1 2.196 1.728 3.353 0.465z" fill="none"/>
<path d="m54.678 118.93c0 0.59 0.231 0.889 0.695 0.889h0.628v-2.145h-0.381c-0.59 0-0.942 0.478-0.942 1.256z" fill="none"/>
<path d="m21.563 9.172c0.701-0.782 1.358-0.43 1.358-0.43-0.657 1.013 0.416 2.036 1.298 1.629 0.75-0.353 1.539-1.859-0.034-2.9-1.639-1.092-3.223 0.036-3.609 1.434-0.435 1.565 0.399 2.489 0.399 2.489s-0.372-1.148 0.588-2.222z" fill="none"/>
<path d="m33.94 7.063c1.566-0.868 1.318-2.612 0.354-3.509-1.079-1.004-2.17-0.716-2.17-0.716s1.074 0.177 1.539 1.403c0.343 0.89-0.225 1.271-0.225 1.271-0.536-0.953-1.804-0.515-1.843 0.361-0.034 0.755 0.846 2.02 2.345 1.19z" fill="none"/>
<path d="m38.321 118.03c-0.187 0.187-0.277 0.419-0.277 0.696 8e-3 0.65 0.24 0.979 0.696 0.979 0.223 0 0.441-0.029 0.65-0.09v-1.884c-0.142 8e-3 -0.276 0.016-0.404 0.016-0.253 7e-3 -0.478 0.097-0.665 0.283z" fill="none"/>
<path d="m7.673 47.78c1.52 0.567 2.512-0.185 2.512-0.185s-1.175 0.274-2.167-0.769c-0.722-0.755-0.314-1.381-0.314-1.381 0.956 0.729 2.063-0.251 1.728-1.152-0.289-0.784-1.713-1.689-2.883-0.208-1.218 1.529-0.224 3.199 1.124 3.695z" fill="none"/>
<path d="m25.688 105.9c-0.356 0.289-0.857 0.436-1.511 0.436-0.556 0-1.066-0.11-1.534-0.327-0.47-0.215-0.809-0.485-1.032-0.8-0.223-0.319-0.404-0.807-0.543-1.478l-0.014-0.083h-0.487v3.43h0.487l0.014-0.079c0.035-0.215 0.094-0.337 0.143-0.376 0.052-0.048 0.124-0.076 0.244-0.083 0.109 0 0.44 0.077 0.954 0.218 0.521 0.148 0.866 0.229 1.04 0.259 0.284 0.043 0.582 0.061 0.906 0.061 1.011 0 1.856-0.266 2.514-0.795 0.649-0.529 0.989-1.181 0.987-1.923 0-0.39-0.104-0.772-0.315-1.124-0.204-0.355-0.497-0.666-0.879-0.926-0.384-0.258-1.074-0.622-2.083-1.093-1.233-0.577-2.021-1.043-2.321-1.368-0.221-0.226-0.318-0.458-0.318-0.714 0-0.341 0.159-0.645 0.502-0.923 0.345-0.277 0.775-0.418 1.308-0.418 0.474 0 0.93 0.102 1.375 0.311 0.442 0.211 0.781 0.491 1.016 0.849 0.235 0.351 0.409 0.832 0.498 1.451l0.018 0.085h0.483v-3.457h-0.478l-0.023 0.077c-0.047 0.211-0.119 0.34-0.175 0.382-0.065 0.053-0.145 0.085-0.274 0.085-0.092 0-0.301-0.053-0.591-0.167-0.657-0.25-1.275-0.377-1.865-0.377-0.932 0-1.722 0.255-2.338 0.761-0.615 0.503-0.927 1.116-0.927 1.824 0 0.402 0.102 0.775 0.317 1.117 0.205 0.339 0.51 0.641 0.915 0.918 0.398 0.274 1.064 0.636 1.985 1.088 0.924 0.447 1.495 0.744 1.689 0.88 0.296 0.197 0.514 0.407 0.651 0.628 0.134 0.224 0.206 0.435 0.206 0.647 0 0.388-0.174 0.708-0.544 1.004z" fill="#0E382A"/>
<path d="m34.778 106.54v0.262h4.474v-0.262c-0.399-0.025-0.8-0.141-1.206-0.348-0.402-0.207-0.884-0.591-1.457-1.16l-3.618-3.567c1.049-0.274 2.186-0.751 3.075-1.578 0.617-0.568 1.07-1.349 1.07-2.031 0-1.108-0.759-2.002-2.042-2.002-0.936 0-1.639 0.554-1.639 1.321 0 0.551 0.339 0.721 0.788 0.721 0.429 0 0.788-0.231 0.788-0.618 0-0.17-0.129-0.377-0.337-0.547 0.104-0.195 0.272-0.216 0.442-0.216 0.473 0 0.706 0.534 0.706 1.089 0 0.54-0.318 1.411-0.842 1.884-0.441 0.406-1.635 1.26-3.804 1.441v-6.329c0-0.489 0.021-0.643 0.961-0.938l-2.813-0.533 0.017 12.2c0 0.491 0 0.642-0.912 0.937l2.754 0.536-7e-3 -5.038c0.076-6e-3 0.144-0.01 0.223-0.023l3.633 3.572c0.244 0.244 0.393 0.404 0.438 0.497 0.04 0.09 0.071 0.183 0.071 0.296 0 0.111-0.064 0.214-0.185 0.302-0.121 0.089-0.313 0.132-0.578 0.132z" fill="#0E382A"/>
<path d="m7.329 100.07l0.014 6.735 2.807-0.529c-0.931-0.324-0.958-0.408-0.958-0.854v-4.031c0-1.356 0.835-3.364 2.303-3.364 1.191 0 1.684 0.79 1.684 2.043v6.732l2.767-0.536c-0.921-0.295-0.921-0.446-0.921-0.937v-4.724s0.055-0.864-0.127-1.47c-0.285-0.973-1.484-1.831-2.952-1.831-1.388 0-2.454 0.784-2.9 1.809-0.277-1.025-1.615-1.809-2.939-1.809-1.275 0-2.059 0.394-2.728 1.177v-1.186l-3.379 0.155v0.725c1.208 0 1.522 0.168 1.522 0.681l0.021 7.949 2.787-0.513c-0.97-0.314-0.97-0.403-0.97-0.87l0.019-4.578c0.18-1.278 0.961-2.817 2.24-2.817 1.218 0 1.71 0.79 1.71 2.043z" fill="#0E382A"/>
<path d="m16.627 102.27c0.351 0 0.551 0.103 0.57 0.406l0.02 4.123 2.063-0.335c-0.629-0.206-0.629-0.264-0.629-0.567l0.012-4.2-2.036 0.099v0.474z" fill="#0E382A"/>
<path d="m52.425 100.75l-0.859-0.76-0.828 0.096h-1.595v-0.252c0.031-1.265 0.431-1.726 1.369-1.755 0.283 0 0.565 0.091 0.834 0.277l0.161 0.329 0.502-0.772-0.138-0.146c-0.493-0.475-1.084-0.722-1.727-0.718-0.691-4e-3 -1.255 0.219-1.623 0.685-0.368 0.457-0.538 1.115-0.538 1.957v0.395h-1.056v1.042h5.929l-0.431-0.378z" fill="#0E382A"/>
<path d="m83.098 98.848c-0.699-0.242-1.47-0.376-2.306-0.376-1.331 0-2.429 0.444-3.231 1.308-0.787 0.87-1.187 2.02-1.187 3.426 0 0.987 0.204 1.818 0.609 2.484h-2.713c-1.032-0.026-1.444-0.48-1.479-1.697v-5.218l-1.858 0.463 0.327 2.474v2.208c-0.03 1.245-0.427 1.691-1.419 1.72-0.556 0-1.139-0.298-1.734-0.961v-5.122l-1.513 0.381v3.982c-0.022 1.238-0.445 1.691-1.458 1.72-0.456 0-1.003-0.264-1.594-0.848 0.012-0.113 0.025-0.237 0.025-0.375v-4.86l-1.503 0.381-0.024 3.998c-0.032 1.26-0.451 1.728-1.485 1.754h-2.255c-1.025-0.026-1.447-0.494-1.479-1.731v-9.231l-1.842 0.46 0.314 2.475v6.296c-0.038 1.237-0.451 1.705-1.465 1.731h-7.569c-1.392-3e-3 -2.28-1.181-2.294-3.227 1e-3 -0.79 0.174-1.419 0.507-1.919l0.228-0.341h-1.28l-0.064 0.114c-0.4 0.727-0.586 1.587-0.586 2.543 0 1.239 0.312 2.27 0.895 2.998 0.572 0.734 1.421 1.143 2.422 1.143h8.185c0.733 2e-3 1.336-0.219 1.781-0.665 0.451 0.441 1.065 0.665 1.807 0.665h3.162c0.747 0 1.382-0.239 1.847-0.727 0.141-0.13 0.253-0.284 0.346-0.456 0.66 0.78 1.477 1.185 2.399 1.183h0.037c0.975 0 1.742-0.441 2.16-1.263 0.639 0.836 1.474 1.267 2.469 1.263 0.702 2e-3 1.304-0.224 1.747-0.665 0.461 0.446 1.077 0.667 1.822 0.665h5.366c1.25 0 2.222-0.267 2.888-0.839 0.671-0.568 0.995-1.426 0.992-2.515v-2.805l0.159-1.94-0.156-0.054zm-3.457 6.842c-0.501-3e-3 -0.907-0.258-1.206-0.747-0.297-0.498-0.479-1.22-0.479-2.097 0-1.013 0.201-1.774 0.566-2.327 0.421-0.627 1.023-0.932 1.861-0.938 0.282 0 0.617 0.053 1.005 0.158l0.171 1.236c0.107 0.818 0.159 1.468 0.159 1.944-0.032 1.946-0.669 2.748-2.077 2.771z" fill="#0E382A"/>
<circle cx="17.756" cy="100.87" r=".659" fill="#0E382A"/>
<path d="m47.757 88.784c-0.503-0.245-1.621-0.019-1.49 1.249 0.123 1.303 1.376 1.649 2.271 1.256 0.996-0.434 1.123-1.256 1.123-1.256s-0.435 0.675-1.409 0.637c-0.696-0.035-0.79-0.53-0.79-0.53 0.802-0.089 0.874-1.079 0.295-1.356z" fill="#0E382A"/>
<path d="m47.972 83.878c-0.033 0.288 0.258 0.786 0.825 0.59-0.04-0.261-0.077-0.529-0.114-0.787-0.227-0.285-0.681-0.135-0.711 0.197z" fill="#0E382A"/>
<path d="m48.563 82.646c-0.172-0.038-0.296-0.016-0.296-0.016s0.152 0.041 0.311 0.174c-0.01-0.055-0.015-0.105-0.015-0.158z" fill="#0E382A"/>
<path d="m41.829 78.361c0.477-0.147 1.07-0.974 0.221-1.728-0.891-0.779-1.915-0.243-2.263 0.556-0.389 0.893 0.027 1.515 0.027 1.515s-0.121-0.717 0.54-1.276c0.476-0.408 0.84-0.137 0.84-0.137-0.476 0.541 0.08 1.243 0.635 1.07z" fill="#0E382A"/>
<path d="m40.146 83.174c0.345 0.245 1.225 0.193 1.265-0.775 0.054-0.998-0.864-1.4-1.58-1.208-0.179 0.054-0.332 0.125-0.458 0.204-0.012 0.109-0.019 0.217-0.031 0.331 0.169-0.055 0.384-0.073 0.626-0.026 0.535 0.1 0.546 0.484 0.546 0.484-0.615-0.022-0.785 0.714-0.368 0.99z" fill="#0E382A"/>
<path d="m40.422 90.926c-0.227-0.463-0.842-0.292-0.885 0.12-0.013 0.126 0.027 0.287 0.115 0.425 0.471 6e-3 0.99-0.064 1.479-0.304 0.163-0.383 0.041-0.844-0.242-1.143-0.479-0.502-1.015-0.401-1.015-0.401s0.511 0.112 0.699 0.71c0.132 0.43-0.151 0.593-0.151 0.593z" fill="#0E382A"/>
<path d="m40.422 87.558c-0.239-0.504-0.893-0.321-0.942 0.124-0.038 0.379 0.371 1.046 1.157 0.673 0.81-0.393 0.739-1.278 0.284-1.763-0.517-0.541-1.08-0.431-1.08-0.431s0.541 0.123 0.74 0.758c0.143 0.459-0.159 0.639-0.159 0.639z" fill="#0E382A"/>
<path d="m38.467 91.012c-0.058 0.073-0.101 0.155-0.136 0.235 0.204 0.067 0.499 0.142 0.857 0.188-0.162-0.465 0.064-0.784 0.064-0.784s-0.434-0.114-0.785 0.361z" fill="#0E382A"/>
<path d="m50.246 91.152c-0.036-0.126-0.08-0.297-0.134-0.5-0.273 0.44-0.678 0.803-1.192 1.04 1.06-0.036 1.326-0.54 1.326-0.54z" fill="#0E382A"/>
<path d="m51.248 58.709c-0.07 0.464-0.15 1.009-0.224 1.534-0.257 1.785-0.959 3.652-1.842 6.266-0.191 0.554-0.554 1.6-0.974 1.022-0.255-0.323-0.539-0.535-0.771-0.897-0.429-0.685-0.429-1.03-0.461-1.336-0.029-0.327-0.076-0.813-0.088-1.136-3e-3 -0.324-0.205-0.743-0.15-0.995 0.073-0.256 0.021-0.633-0.088-0.928-0.237-0.623-8e-3 -1.031-0.054-1.324-0.076-0.369-0.422-0.537-0.422-0.537 0.188-0.268-0.097-0.372-0.097-0.372 0.142-0.258-0.131-0.385-0.267-0.391-0.159-5e-3 -0.459-0.042-0.459-0.042-1.714-1.321-2.852 0.092-2.852 0.092s-0.569 0.028-0.895 0.185c-0.339 0.156-0.148 0.443-0.07 0.497 0 0-0.282 0.098-0.245 0.272 0.052 0.171 0.109 0.166 0.087 0.296-0.018 0.132-0.124 0.413-0.217 0.588-0.089 0.179-0.115 0.408 0.039 0.607 0.16 0.201 0.173 0.379 0.394 1.147 0.122 0.411 0.025 0.97 0.057 1.251 0.036 0.389 9e-3 0.861-0.085 1.118-0.133 0.356-0.188 0.512-0.463 0.805-0.018 0.011-0.038 0.024-0.057 0.042-0.27 0.267-0.898 1.124-1.225 0.411-0.567-1.232-1.448-3.429-1.77-4.425-0.375-1.171-1.44-5.052-1.782-6.992-0.07 0.193-0.15 0.385-0.245 0.575-0.331 0.665-0.76 1.202-1.244 1.622 0.254 1.112 0.762 3.405 1.135 5.549 0.592 3.41 2.03 6.278 2.723 8.379 0.242 0.702 0.616 2.897 0.776 5.322 0.617-1.109 1.859-1.419 2.726-0.923 0.92 0.528 1.191 1.535 0.626 2.322-0.559 0.783-1.28 0.632-1.28 0.632s0.087 0.616 0.882 0.811c1.228 0.293 2.008-0.916 2.008-0.916-0.538 1.391-2.236 2.19-3.543 1.67-0.59-0.234-1.05-0.624-1.344-1.089-7e-3 0.199-0.014 0.393-0.022 0.59-7e-3 0.258-0.023 0.557-0.053 0.897 0.061-0.023 0.125-0.04 0.189-0.062 1.169-0.318 2.146 0.377 2.284 1.272 0.137 0.895-0.387 1.612-1.212 1.663-0.819 0.042-1.113-0.519-1.113-0.519s-0.355 0.382-0.061 1.018c0.459 0.974 1.684 0.845 1.684 0.845-0.747 0.236-1.578 0.059-2.19-0.378-0.052 0.378-0.105 0.771-0.156 1.161 0.762-0.39 1.656-0.273 2.264 0.356 0.735 0.781 0.604 1.857-0.045 2.344-0.64 0.488-1.439 0.374-1.822-0.253-0.39-0.631-0.062-1.092-0.062-1.092s-0.259-0.07-0.54 0.102c-0.092 0.632-0.19 1.274-0.285 1.91-3e-3 6e-3 -3e-3 9e-3 -3e-3 9e-3 0.016 0.013 0.022 0.027 0.031 0.039-0.01-0.012-0.016-0.024-0.031-0.033-0.036 0.227-0.072 0.452-0.103 0.676 0.046-0.058 0.099-0.126 0.155-0.185 0.778-0.791 1.943-0.803 2.657-0.065 0.353 0.375 0.496 0.817 0.472 1.221 0.018-0.013 0.04-0.025 0.06-0.037 1.488-1.119 3.301-0.378 4.311 0.053 0.011 2e-3 0.023 0.01 0.031 0.01-0.095-0.145-0.176-0.302-0.228-0.468-0.349-1.139 0.197-2.164 1.247-2.383 1.061-0.219 1.54 0.456 1.54 0.456s0.394-0.573-0.114-1.33c-0.779-1.176-2.338-0.775-2.338-0.775 1.01-0.497 2.244-0.365 3.156 0.207-0.12-0.593-0.232-1.208-0.334-1.832-0.419 0.122-0.85-0.023-1.086-0.416-0.315-0.508-0.053-0.889-0.053-0.889s-0.371-0.1-0.68 0.314c-0.468 0.624 0.04 1.376 0.04 1.376-0.676-0.649-0.716-1.817-0.102-2.449 0.442-0.445 1.023-0.612 1.549-0.494-0.069-0.742-0.094-1.456-0.079-2.103 0.128-4.151-0.193-5.642 0.977-7.673 1.276-2.207 1.78-3.683 2.334-5.683 0.55-1.995 0.729-2.995 0.985-5.338 0.148-1.397 0.25-3.049 0.31-4.161-0.482 0.569-1.093 1.042-1.803 1.387zm-12.869 30.617c0-1e-3 -0.01-0.017-0.017-0.026 6e-3 0.01 0.018 0.028 0.018 0.028l-1e-3 -2e-3zm6.117 0.08c-0.484 0.368-1.079 0.286-1.371-0.196-0.29-0.467-0.046-0.814-0.046-0.814s-0.346-0.095-0.627 0.28c-0.434 0.582 0.033 1.27 0.033 1.27-0.621-0.598-0.661-1.684-0.089-2.253 0.627-0.639 1.565-0.654 2.128-0.057 0.569 0.593 0.462 1.4-0.028 1.77zm-0.301-2.89c-1.315 0.324-2.383-0.489-2.512-1.491-0.124-1.008 0.482-1.794 1.412-1.82 0.917-0.023 1.218 0.615 1.218 0.615s0.421-0.415 0.109-1.129c-0.485-1.11-1.855-1.009-1.855-1.009 1.37-0.391 2.957 0.445 3.311 1.734 0.397 1.421-0.354 2.774-1.683 3.1zm3.582-5.762c-0.478 0.86-1.754 1.191-2.67 0.672 0 0 0.965 0.311 1.498-0.407 0.342-0.462 0.117-0.832 0.117-0.832s-0.32 0.409-0.98 0.236c-0.658-0.18-0.966-0.842-0.701-1.543s1.176-1.101 2.062-0.641c0.893 0.454 1.202 1.558 0.674 2.515z" fill="#0E382A"/>
<path d="m43.81 85.557c-0.59-0.133-0.59-0.562-0.59-0.562 0.682 0.047 0.899-0.777 0.45-1.098-0.388-0.283-1.363-0.26-1.445 0.823-0.087 1.115 0.925 1.596 1.723 1.402 0.905-0.222 1.137-0.892 1.137-0.892s-0.467 0.51-1.275 0.327z" fill="#0E382A"/>
<path d="m43.584 87.562s0.411 0.093 0.56 0.575c0.105 0.348-0.119 0.475-0.119 0.475-0.184-0.373-0.681-0.236-0.714 0.093-0.03 0.284 0.28 0.789 0.871 0.505 0.608-0.291 0.558-0.957 0.213-1.317-0.391-0.411-0.811-0.331-0.811-0.331z" fill="#0E382A"/>
<path d="m46.853 78.471c-0.542-0.271-1.351-0.103-1.477 0.721-0.126 0.788 0.57 0.968 0.892 0.835 0.384-0.153 0.367-0.78-0.132-0.862 0 0 0.081-0.311 0.521-0.306 0.604 8e-3 0.858 0.453 0.858 0.453s-0.047-0.523-0.662-0.841z" fill="#0E382A"/>
<path d="m54.856 17.193s0.106-3.183 2.774-4.02c1.721-0.533 2.594 0.534 2.594 0.534s-1.559 0.53-1.728 2.663c-0.166 2.131 1.484 3.736 3.838 3.697 0.717-0.014 1.414-0.238 2.026-0.627 0-1.245 0.728-2.364 1.987-2.961 0.117-0.567 0.148-1.18 0.06-1.834-0.423-3.146-3.356-5.208-6.736-4.656-3.062 0.511-5.377 3.949-4.815 7.204zm7.792-0.666s0.995 0.095 1.443-1.223c0.621-1.82-0.435-3.026-0.435-3.026s1.498 0.699 1.779 2.844c0.252 1.906-1.1 4.103-3.665 3.624-2.464-0.465-2.284-2.713-1.546-3.531 0.863-0.955 2.708-0.265 2.424 1.312z" fill="#C94851"/>
<path d="m52.037 10.568c0.346-1.568-0.712-2.938-2.473-3.156-1.75-0.217-3.578 1.253-3.597 3.606-0.021 2.391 1.948 4.24 4.526 4.184 2.332-0.056 4.423-2.379 4.351-4.863 0 0-0.419 2.362-2.498 2.706-1.338 0.216-1.869-0.669-1.869-0.669s1.216-0.235 1.56-1.808zm-1.404 0.685c-0.747 0.618-2.049-0.093-1.672-1.242 0 0-0.725-0.172-1.198 0.766-0.654 1.287 0 2.296 0 2.296s-1.041-0.682-1.025-2.301c0.013-1.455 1.258-2.944 3.112-2.318 1.793 0.604 1.421 2.262 0.783 2.799z" fill="#5BB7AA"/>
<path d="m40.104 16.851c-1.169 2.312 0 5.565 2.473 6.801 0 0-2.09-1.648-1.331-3.853 0.483-1.428 1.628-1.488 1.628-1.488s-0.407 1.311 0.94 2.478c1.359 1.159 3.258 0.845 4.394-0.756 1.121-1.602 0.649-4.162-1.644-5.415-2.321-1.27-5.162-0.317-6.46 2.233zm6.297-1.344c1.398 0.771 2.218 2.767 0.632 4.257-1.532 1.431-2.956 0.198-3.141-0.706-0.219-1.055 1.162-1.954 2.086-0.982 0 0 0.556-0.621-0.112-1.574-0.921-1.311-2.251-1.203-2.251-1.203s1.207-0.664 2.786 0.208z" fill="#F7E11F"/>
<path d="m34.633 14.413c0.368-1.653-0.754-3.095-2.597-3.323-1.849-0.228-3.776 1.313-3.792 3.797-0.02 2.515 2.046 4.46 4.761 4.394 2.461-0.056 4.657-2.499 4.577-5.117 0 0-0.431 2.492-2.623 2.85-1.406 0.229-1.973-0.7-1.973-0.7s1.279-0.249 1.647-1.901zm-1.481 0.719c-0.783 0.65-2.146-0.098-1.757-1.307 0 0-0.767-0.177-1.265 0.801-0.681 1.361 0.011 2.42 0.011 2.42s-1.101-0.712-1.083-2.422c0.017-1.525 1.319-3.098 3.274-2.437 1.891 0.635 1.5 2.383 0.82 2.945z" fill="#D26C69"/>
<path d="m38.536 26.073c-0.794 1.779 0.157 4.17 2.636 4.953 2.502 0.786 5.078-0.69 5.844-3.413 0.698-2.476-1.074-5.424-3.712-6.141 0 0 2.347 1.196 2.039 3.487-0.196 1.478-1.302 1.757-1.302 1.757s0.153-1.347-1.395-2.221c-1.532-0.874-3.317-0.198-4.11 1.578zm4.376 0.115c0.418 0.985-0.755 2.124-1.842 1.356 0 0-0.416 0.713 0.418 1.51 1.141 1.101 2.414 0.739 2.414 0.739s-1.043 0.88-2.748 0.34c-1.512-0.488-2.694-2.266-1.435-4.02 1.22-1.692 2.837-0.767 3.193 0.075z" fill="#02AA8A"/>
<path d="m56.285 43.508s0.7 1.748-0.542 2.829c-0.808 0.701-1.526 0.326-1.526 0.326s0.712-0.655 0.298-1.837c-0.411-1.191-1.684-1.669-2.941-1.088-1.262 0.579-1.88 2.314-0.913 3.891 0.972 1.594 3.047 2.019 4.73 0.912 1.535-0.999 1.97-3.408 0.894-5.033zm-2.424 2.349c-0.247 0.714-1.395 0.783-1.627-0.129 0 0-0.554 0.179-0.477 0.993 0.093 1.131 0.948 1.529 0.948 1.529s-0.977-0.017-1.632-1.106c-0.587-0.97-0.379-2.482 1.116-2.827 1.436-0.337 1.878 0.923 1.672 1.54z" fill="#844680"/>
<path d="m44.974 56.474c0.719-0.654 1.3-1.484 1.66-2.405-0.058-0.119-0.121-0.227-0.171-0.364-0.034-0.095-0.044-0.188-0.07-0.283-0.467 0.778-1.245 1.583-2.518 1.792-0.101 0.016-0.186 0.013-0.28 0.02 0.325 0.453 0.777 0.918 1.379 1.24z" fill="#ADCB40"/>
<path d="m36.385 55.096c0.922 1.749 2.837 2.903 5.142 2.845 0.963-0.022 1.891-0.352 2.704-0.89-0.438-0.538-0.786-1.149-1.026-1.805-1.195-0.068-1.701-0.882-1.701-0.882s1.545-0.292 1.979-2.284c0.173-0.768 0.074-1.495-0.233-2.117-1.353-0.133-2.608-0.779-3.496-1.889-1.661 0.077-3.236 1.29-3.762 3.233 0.601 1.163 0.756 2.5 0.393 3.789zm4.333-5.697c2.265 0.763 1.798 2.865 0.987 3.544-0.935 0.786-2.59-0.118-2.12-1.563 0 0-0.922-0.228-1.521 0.957-0.827 1.635 9e-3 2.915 9e-3 2.915s-1.323-0.86-1.299-2.917c0.02-1.832 1.587-3.734 3.944-2.936z" fill="#ADCB40"/>
<path d="m43.249 49.964c1.286 0.127 2.66-0.207 3.893-1.062 2.432-1.683 3.014-5.596 1.211-8.174 0 0 1.202 2.787-0.752 4.601-1.263 1.163-2.453 0.601-2.453 0.601s1.127-1.098 0.4-2.998c-0.726-1.909-2.813-2.614-4.817-1.613-2.006 0.99-2.924 3.819-1.289 6.328 0.097 0.15 0.202 0.292 0.311 0.428 0.202-9e-3 0.404-0.021 0.606 4e-3 1.368 0.169 2.399 0.892 2.89 1.885zm-1.496-7.74c2.322-0.612 3.082 1.4 2.781 2.408-0.359 1.176-2.223 1.33-2.629-0.147 0 0-0.892 0.326-0.746 1.648 0.217 1.817 1.614 2.424 1.614 2.424s-1.575 0.017-2.691-1.714c-0.995-1.541-0.727-3.994 1.671-4.619z" fill="#CA5749"/>
<path d="m43.249 49.964c-0.491-0.993-1.522-1.716-2.891-1.885-0.202-0.025-0.404-0.013-0.606-4e-3 0.889 1.11 2.144 1.756 3.497 1.889z" fill="#CA5749"/>
<path d="m13.046 52.268c1.52 1.163 3.389 0.906 4.308-0.569 0.927-1.48 0.161-2.583 0.161-2.583s1.089-0.283 1.958 0.902c1.353 1.848-0.122 3.983-0.122 3.983 1.945-1.857 2.084-5.24 0.325-7.062-1.952-2.008-4.878-2.066-6.672-0.205-1.788 1.839-1.481 4.368 0.042 5.534zm2.901-5.755s-1.273 0.289-1.741 1.777c-0.352 1.084 0.351 1.501 0.351 1.501 0.578-1.167 2.126-0.731 2.228 0.319 0.092 0.892-0.877 2.458-2.729 1.568-1.91-0.927-1.737-3.026-0.646-4.161 1.216-1.272 2.537-1.004 2.537-1.004z" fill="#D26C69"/>
<path d="m54.585 42.183c1.19-1.261 1.055-3.577-0.296-4.833 0 0 1.029 1.45 0.121 2.725-0.58 0.826-1.322 0.643-1.322 0.643s0.507-0.762-0.135-1.766c-0.648-1.006-1.929-1.156-2.958-0.34-1.031 0.815-1.212 2.543 0.026 3.781 1.25 1.252 3.258 1.182 4.564-0.21zm-3.891-3.174c1.251-0.632 1.936 0.43 1.88 1.043-0.057 0.714-1.117 1.028-1.528 0.235 0 0-0.467 0.298-0.215 1.031 0.334 1.02 1.206 1.195 1.206 1.195s-0.9 0.197-1.747-0.656c-0.753-0.761-0.891-2.197 0.404-2.848z" fill="#F4E261"/>
<path d="m53.605 28.687c0.275-1.21-0.555-2.276-1.912-2.442-1.358-0.161-2.774 0.97-2.793 2.79-9e-3 1.849 1.517 3.28 3.505 3.228 1.811-0.038 3.422-1.833 3.37-3.752 0 0-0.322 1.825-1.932 2.089-1.034 0.17-1.452-0.516-1.452-0.516s0.937-0.185 1.214-1.397zm-1.087 0.528c-0.573 0.479-1.581-0.071-1.298-0.958 0 0-0.56-0.136-0.924 0.59-0.509 0.997 0 1.776 0 1.776s-0.802-0.524-0.785-1.78c5e-3 -1.121 0.966-2.277 2.402-1.791 1.388 0.465 1.092 1.754 0.605 2.163z" fill="#424398"/>
<path d="m23.061 14.15c2.276 0.545 4.892-1.16 5.458-3.576 0 0-1.011 2.175-3.105 1.968-1.349-0.129-1.645-1.129-1.645-1.129s1.24 0.087 1.986-1.338c0.741-1.425 0.065-3.026-1.574-3.69-1.643-0.657-3.793 0.286-4.416 2.562-0.634 2.305 0.792 4.593 3.296 5.203zm-2.485-5.245c0.386-1.398 1.97-2.526 3.609-1.434 1.573 1.041 0.784 2.547 0.034 2.9-0.882 0.407-1.955-0.616-1.298-1.629 0 0-0.657-0.352-1.358 0.43-0.96 1.074-0.588 2.222-0.588 2.222s-0.834-0.924-0.399-2.489z" fill="#D26C69"/>
<path d="m55.063 35.894c0.798 2.103 3.143 3.058 5.392 2.131 2.031-0.838 3.075-3.578 2.168-5.734 0 0 0.437 2.212-1.276 3.215-1.1 0.645-1.865 0.052-1.865 0.052s0.986-0.619 0.759-2.113c-0.221-1.489-1.621-2.341-3.238-1.94-1.607 0.407-2.722 2.315-1.94 4.389zm2.547-3.564c1.781-0.077 2.012 1.505 1.63 2.187-0.438 0.798-1.823 0.611-1.886-0.524 0 0-0.701 0.093-0.795 1.077-0.136 1.351 0.787 2.018 0.787 2.018s-1.145-0.245-1.683-1.673c-0.48-1.276 0.101-3.009 1.947-3.085z" fill="#8F8AC0"/>
<path d="m46.259 6.745c1.579 0.517 3.034-0.226 3.37-1.699 0.329-1.478-0.621-2.161-0.621-2.161s0.818-0.542 1.868 0.18c1.635 1.132 1.037 3.297 1.037 3.297 1.057-2.079 0.213-4.895-1.757-5.873-2.16-1.087-4.58-0.299-5.524 1.738-0.925 2.014 0.045 3.994 1.627 4.518zm-1.066-3.993c0.64-1.391 1.797-1.547 1.797-1.547s-0.967 0.593-0.925 1.952c0.028 0.987 0.718 1.131 0.718 1.131 0.143-1.128 1.537-1.213 1.917-0.385 0.328 0.712-0.017 2.27-1.784 2.062-1.832-0.206-2.292-1.975-1.723-3.213z" fill="#7976B5"/>
<path d="m26.39 55.289c-1.672-0.199-2.313 0.909-2.313 0.909s-0.693-0.832-0.012-2.069c1.063-1.93 3.531-1.514 3.531-1.514-2.413-0.94-5.426 0.304-6.3 2.583-0.957 2.513 0.173 5.095 2.529 5.909 2.328 0.803 4.412-0.48 4.81-2.285 0.401-1.798-0.579-3.329-2.245-3.533zm-2.05 5.143c-1.604-0.547-1.902-1.81-1.902-1.81s0.764 0.999 2.258 0.803c1.087-0.135 1.168-0.911 1.168-0.911-1.257-0.038-1.505-1.557-0.633-2.076 0.745-0.435 2.508-0.23 2.478 1.743-0.032 2.048-1.936 2.744-3.369 2.251z" fill="#ADCB40"/>
<path d="m54.401 5.636c1.189-0.438 1.843 0.278 1.843 0.278s-1.081 0.432-1.112 1.939c-0.044 1.5 1.177 2.571 2.823 2.451 1.655-0.113 3.072-1.79 2.665-3.953-0.411-2.198-2.541-3.539-4.897-3.024-2.137 0.462-3.642 2.969-3.125 5.238 0 0-0.047-2.241 1.803-2.929zm3.649 2.173s0.704 0.034 0.967-0.91c0.374-1.298-0.411-2.112-0.411-2.112s1.081 0.434 1.354 1.934c0.241 1.325-0.63 2.926-2.449 2.681-1.75-0.235-1.703-1.826-1.212-2.428 0.573-0.7 1.894-0.285 1.751 0.835z" fill="#CA5749"/>
<path d="m62.661 26.879c0.421-1.53-0.561-2.935-2.281-3.227-1.716-0.295-3.597 1.058-3.727 3.378-0.126 2.354 1.729 4.273 4.263 4.334 2.299 0.058 4.475-2.127 4.518-4.574 0 0-0.523 2.302-2.59 2.536-1.329 0.156-1.817-0.746-1.817-0.746s1.213-0.17 1.634-1.701zm-1.422 0.598c-0.759 0.582-2.008-0.185-1.584-1.294 0 0-0.706-0.207-1.217 0.692-0.71 1.239-0.108 2.264-0.108 2.264s-0.995-0.716-0.901-2.318c0.088-1.422 1.381-2.835 3.177-2.13 1.742 0.682 1.295 2.298 0.633 2.786z" fill="#F4B12E"/>
<path d="m58.41 58.922c-0.213-1.138-1.31-1.745-2.539-1.384-1.224 0.353-2.019 1.85-1.363 3.423 0.67 1.587 2.502 2.252 4.193 1.475 1.54-0.7 2.268-2.837 1.505-4.468 0 0 0.397 1.69-0.886 2.507-0.824 0.526-1.437 0.095-1.437 0.095s0.741-0.502 0.527-1.648zm-0.739 0.848c-0.317 0.63-1.376 0.532-1.46-0.339 0 0-0.527 0.092-0.578 0.848-0.066 1.049 0.662 1.529 0.662 1.529s-0.888-0.152-1.342-1.238c-0.407-0.969-0.011-2.31 1.403-2.423 1.367-0.11 1.587 1.094 1.315 1.623z" fill="#02AA8A"/>
<path d="m10.741 34.793c-0.256-1.348-1.549-2.064-2.992-1.64-1.436 0.42-2.377 2.178-1.6 4.02 0.792 1.871 2.947 2.658 4.936 1.741 1.805-0.823 2.655-3.334 1.756-5.252 0 0 0.473 1.983-1.031 2.942-0.97 0.625-1.687 0.111-1.687 0.111s0.864-0.586 0.618-1.922zm-0.874 0.993c-0.367 0.733-1.624 0.615-1.718-0.404 0 0-0.623 0.111-0.679 0.996-0.081 1.229 0.773 1.799 0.773 1.799s-1.04-0.18-1.569-1.454c-0.479-1.134-0.011-2.722 1.648-2.856 1.603-0.127 1.865 1.287 1.545 1.919z" fill="#CA5749"/>
<path d="m50.076 19.399c-2.156 1.133-2.632 3.512-1.594 5.022 1.029 1.508 2.796 1.834 4.07 0.763 1.271-1.067 0.911-2.294 0.911-2.294s1.071 0.068 1.499 1.407c0.678 2.068-1.288 3.575-1.288 3.575 2.321-1.113 3.454-4.138 2.392-6.309-1.174-2.397-3.8-3.321-5.99-2.164zm0.628 1.764c-0.633 0.877-0.124 1.465-0.124 1.465 0.874-0.89 2.137-0.036 1.931 0.945-0.191 0.84-1.536 1.968-2.947 0.609-1.457-1.407-0.672-3.255 0.648-3.958 1.487-0.791 2.6-0.155 2.6-0.155s-1.234-0.124-2.108 1.094z" fill="#CA5749"/>
<path d="m35.833 13.187s-1.109-2.731 0.836-4.439c1.255-1.1 2.386-0.521 2.386-0.521s-1.113 1.032-0.455 2.896c0.652 1.862 2.656 2.597 4.622 1.676 1.971-0.912 2.925-3.628 1.409-6.098-1.537-2.498-4.781-3.147-7.426-1.401-2.393 1.571-3.063 5.343-1.372 7.887zm3.792-3.688c0.368-1.128 2.186-1.236 2.537 0.198 0 0 0.878-0.29 0.762-1.572-0.16-1.766-1.494-2.391-1.494-2.391s1.526 0.025 2.561 1.736c0.921 1.513 0.604 3.877-1.74 4.432-2.257 0.535-2.949-1.435-2.626-2.403z" fill="#CF5750"/>
<path d="m31.68 38.195c-0.212-2.313-2.285-3.91-4.775-3.609-2.254 0.274-4.055 2.715-3.749 5.115 0 0 0.174-2.327 2.153-2.853 1.271-0.338 1.878 0.469 1.878 0.469s-1.152 0.339-1.346 1.89c-0.186 1.552 0.975 2.778 2.693 2.819 1.714 0.044 3.349-1.55 3.146-3.831zm-3.515 2.851c-1.795-0.418-1.585-2.054-1.022-2.624 0.663-0.674 1.988-0.114 1.731 1.032 0 0 0.721 0.098 1.09-0.851 0.506-1.308-0.222-2.225-0.222-2.225s1.076 0.559 1.217 2.131c0.115 1.401-0.938 2.974-2.794 2.537z" fill="#CA5749"/>
<path d="m21.108 18.967c-2.199 0.644-3.18 2.921-2.243 5.264 0.942 2.343 4.037 3.627 6.995 2.022 3.004-1.625 3.954-5.357 2.105-8.538-1.677-2.88-6.014-3.898-9.072-2.095 0 0 3.238-1.108 5.098 1.259 1.195 1.525 0.461 2.807 0.461 2.807s-1.135-1.361-3.344-0.719zm6.078 3.626s-0.121 1.766-2.17 2.864c-1.824 0.981-4.546 0.464-5.043-2.294-0.474-2.662 1.854-3.329 2.96-2.898 1.286 0.498 1.293 2.611-0.395 2.933 0 0 0.286 1.026 1.779 0.979 2.061-0.072 2.869-1.584 2.869-1.584z" fill="#F7E11F"/>
<path d="m37.138 38.568s0.062 1.013 1.299 1.464c1.242 0.453 2.467-0.271 2.834-1.674 0.36-1.402-0.634-3.052-2.555-3.311-1.942-0.269-3.65 1.132-3.875 3.235-0.208 1.904 1.463 3.85 3.484 4.056 0 0-1.875-0.589-1.929-2.32-0.036-1.11 0.742-1.45 0.742-1.45zm1.7-2.868c1.175 0.169 2.263 1.332 1.553 2.778-0.684 1.392-1.985 0.916-2.356 0.335-0.422-0.67 0.29-1.645 1.181-1.218 0 0 0.219-0.576-0.491-1.064-0.975-0.662-1.867-0.238-1.867-0.238s0.657-0.779 1.98-0.593z" fill="#936995"/>
<path d="m10.148 28.742c1.253-0.898 1.498-2.4 0.565-3.455-0.928-1.054-1.946-0.724-1.946-0.724s0.033-0.905 1.146-1.295c1.736-0.61 3.048 1.019 3.048 1.019-0.986-1.931-3.564-2.829-5.369-1.89-1.996 1.032-2.732 3.275-1.718 5.093 1.003 1.797 3.024 2.149 4.274 1.252zm-3.753-3.578s-0.076 1.051 0.966 1.761c0.746 0.519 1.235 0.079 1.235 0.079-0.767-0.722-0.072-1.809 0.752-1.645 0.718 0.142 1.695 1.251 0.582 2.464-1.157 1.263-2.736 0.635-3.353-0.465-0.694-1.239-0.182-2.194-0.182-2.194z" fill="#844680"/>
<path d="m67.225 35.662c1.332 0.67 2.811 0.018 3.404-1.503 0.591-1.531-0.317-3.512-2.436-4.063-2.144-0.561-4.255 0.791-4.782 3.124-0.48 2.111 1.131 4.516 3.387 5.015 0 0-2.031-0.905-1.864-2.858 0.104-1.25 1.028-1.529 1.028-1.529s-0.069 1.14 1.263 1.814zm-1.282-4.411s0.846-0.785 2.298-0.407c1.301 0.348 2.368 1.804 1.386 3.331-0.957 1.472-2.36 0.762-2.692 0.069-0.389-0.81 0.542-1.823 1.488-1.224 0 0 0.324-0.617-0.412-1.252-1.011-0.881-2.068-0.517-2.068-0.517z" fill="#936995"/>
<path d="m66.394 58.84c1.921-0.01 3.386-1.605 3.314-3.678-0.069-1.88-1.954-3.532-3.95-3.45 0 0 1.902 0.311 2.197 1.984 0.192 1.063-0.523 1.509-0.523 1.509s-0.197-0.972-1.455-1.239c-1.265-0.268-2.365 0.6-2.519 2.015-0.16 1.414 1.04 2.871 2.936 2.859zm-2.106-3.096c0.475-1.449 1.805-1.16 2.242-0.654 0.51 0.59-0.053 1.64-0.975 1.355 0 0-0.135 0.586 0.621 0.955 1.044 0.511 1.854-0.026 1.854-0.026s-0.535 0.848-1.848 0.848c-1.159 2e-3 -2.374-0.975-1.894-2.478z" fill="#F7E11F"/>
<path d="m34.278 27.142c-1.881 0.486-2.85 2.145-2.239 3.814 0.609 1.658 1.975 1.741 1.975 1.741s-0.457 1.043-1.956 1c-2.32-0.069-3.118-2.596-3.118-2.596 0.284 2.728 2.902 4.965 5.464 4.685 2.828-0.307 4.712-2.61 4.346-5.227-0.366-2.576-2.577-3.911-4.472-3.417zm2.803 5.927s0.567-1.203-0.331-2.519c-0.66-0.951-1.428-0.653-1.428-0.653 0.573 1.197-0.744 2.158-1.642 1.587-0.778-0.488-1.426-2.244 0.448-3.166 1.936-0.958 3.508 0.5 3.737 2.081 0.256 1.781-0.784 2.67-0.784 2.67z" fill="#F4B12E"/>
<path d="m64.359 19.44c0 0.379 0.05 0.766 0.194 1.157 0.704 1.924 2.281 2.016 2.281 2.016s-0.53 1.21-2.26 1.158c-2.693-0.075-3.606-3.005-3.606-3.005 0.325 3.163 3.354 5.747 6.314 5.422 3.274-0.36 5.448-3.022 5.025-6.043-0.416-2.977-2.981-4.525-5.164-3.957-0.285 0.074-0.55 0.173-0.797 0.291-0.268 1.303-1.017 2.343-1.987 2.961zm2.602-1.889c2.246-1.104 4.065 0.589 4.326 2.411 0.298 2.052-0.908 3.079-0.908 3.079s0.661-1.385-0.382-2.903c-0.754-1.103-1.649-0.758-1.649-0.758 0.658 1.383-0.858 2.495-1.904 1.838-0.898-0.568-1.644-2.599 0.517-3.667z" fill="#7A63A6"/>
<path d="m64.359 19.44c0.97-0.617 1.718-1.658 1.987-2.961-1.259 0.597-1.987 1.715-1.987 2.961z" fill="#7A63A6"/>
<path d="m28.762 28.698c1.819 0.485 1.975 2.63 1.975 2.63 0.29-2.209-1.368-4.457-3.429-4.718-2.292-0.273-4.202 1.189-4.398 3.313-0.195 2.102 1.301 3.563 2.878 3.531 1.58-0.04 2.655-1.161 2.477-2.586-0.171-1.425-1.231-1.743-1.231-1.743s0.563-0.737 1.728-0.427zm-1.689 1.44c0.524 0.527 0.707 2.036-0.932 2.416-1.715 0.389-2.681-1.049-2.57-2.339 0.13-1.443 1.113-1.954 1.113-1.954s-0.67 0.836-0.201 2.045c0.336 0.87 0.999 0.782 0.999 0.782-0.226-1.052 0.987-1.569 1.591-0.95z" fill="#D26C69"/>
<path d="m46.633 54.068c0.76 1.554 2.11 1.652 2.11 1.652s-0.525 1.212-2.252 1.16c-0.589-0.019-1.089-0.177-1.517-0.407-0.234 0.213-0.483 0.406-0.743 0.578 1.228 1.508 3.112 2.449 4.972 2.246 0.746-0.081 1.432-0.288 2.046-0.588 0.099-0.66 0.176-1.152 0.176-1.152l0.782-0.518 0.906-0.98s-0.02 0.508-0.06 1.262c0.927-1.095 1.384-2.535 1.171-4.069-0.418-2.98-2.99-4.522-5.163-3.959-2.081 0.538-3.164 2.301-2.668 4.128 0.502-0.835 0.646-1.638 0.646-1.638 0.023 0.79-0.124 1.565-0.406 2.285zm2.249-3.406c2.24-1.104 4.057 0.58 4.32 2.402 0.296 2.058-0.909 3.085-0.909 3.085s0.66-1.39-0.38-2.906c-0.76-1.099-1.65-0.757-1.65-0.757 0.667 1.386-0.856 2.504-1.902 1.844-0.899-0.572-1.649-2.603 0.521-3.668z" fill="#D26C69"/>
<path d="m43.594 55.234c-0.504-0.698-0.714-1.353-0.714-1.353 0.049 0.471 0.164 0.927 0.324 1.365 0.121 7e-3 0.254-2e-3 0.39-0.012z" fill="#D26C69"/>
<path d="m52.206 57.039l-0.782 0.518s-0.077 0.493-0.176 1.152c0.71-0.346 1.321-0.818 1.803-1.388 0.04-0.754 0.06-1.262 0.06-1.262l-0.905 0.98z" fill="#D26C69"/>
<path d="m44.974 56.474c-0.601-0.322-1.054-0.787-1.38-1.239-0.135 0.01-0.268 0.019-0.389 0.012 0.24 0.656 0.588 1.267 1.026 1.805 0.26-0.173 0.509-0.365 0.743-0.578z" fill="#D26C69"/>
<path d="m46.633 54.068c0.281-0.72 0.429-1.496 0.404-2.284 0 0-0.144 0.803-0.646 1.638 0.026 0.094 0.036 0.188 0.07 0.283 0.051 0.136 0.114 0.244 0.172 0.363z" fill="#D26C69"/>
<path d="m63.548 51.241c-1.023-1.683-2.903-2.129-4.33-1.061-1.44 1.074-1.119 2.415-1.119 2.415s-1.147-0.137-1.534-1.593c-0.605-2.266 1.606-3.775 1.606-3.775-2.555 1.062-3.955 4.247-2.939 6.645 1.115 2.639 3.885 3.788 6.305 2.674 2.38-1.095 3.031-3.623 2.011-5.305zm-4.915 4.419s1.327 0.204 2.336-1.047c0.728-0.908 0.216-1.564 0.216-1.564-0.992 0.903-2.304-0.095-2.018-1.128 0.246-0.895 1.762-2.027 3.193-0.486 1.49 1.592 0.537 3.538-0.923 4.217-1.648 0.763-2.804 8e-3 -2.804 8e-3z" fill="#9DC9EB"/>
<path d="m42.13 35.345c-0.554 2.853 1.31 5.072 3.483 5.24 2.178 0.162 3.8-1.239 3.755-3.224-0.039-1.984-1.453-2.562-1.453-2.562s0.866-0.938 2.429-0.346c2.428 0.914 2.361 3.868 2.361 3.868 0.689-2.99-1.278-6.296-4.087-6.933-3.103-0.694-5.93 1.059-6.488 3.957zm4.086 4.05c-2.407 0.306-3.542-1.808-3.209-3.554 0.375-1.978 1.795-2.542 1.795-2.542s-1.036 1.065-0.554 2.78c0.342 1.245 1.267 1.211 1.267 1.211-0.172-1.474 1.565-2.022 2.319-1.087 0.642 0.795 0.691 2.89-1.618 3.192z" fill="#C1272F"/>
<path d="m71.604 33.49s2.876 0.156 3.577 2.589c0.453 1.56-0.524 2.328-0.524 2.328s-0.455-1.42-2.372-1.605c-1.924-0.198-3.411 1.272-3.419 3.391-6e-3 2.123 2.007 4.102 4.828 3.779 2.848-0.317 4.771-2.927 4.323-5.992-0.393-2.775-3.461-4.934-6.413-4.49zm1.673 9.601c-1.726 0.188-3.687-1.077-3.207-3.385 0.467-2.219 2.498-2.012 3.221-1.326 0.846 0.796 0.196 2.443-1.232 2.167 0 0-0.104 0.895 1.073 1.325 1.636 0.593 2.75-0.333 2.75-0.333s-0.662 1.333-2.605 1.552z" fill="#7DC2E3"/>
<path d="m17.719 21.874c1.213-1.73 0.838-3.776-0.837-4.712-1.677-0.945-2.858-0.051-2.858-0.051s-0.361-1.178 0.904-2.197c1.961-1.576 4.392-0.063 4.392-0.063-2.147-2.052-5.88-2.039-7.797-5e-3 -2.101 2.246-2.029 5.466 0.112 7.356 2.109 1.871 4.877 1.409 6.084-0.328zm-6.476-2.907s0.38 1.385 2.049 1.834c1.202 0.326 1.63-0.459 1.63-0.459-1.317-0.584-0.909-2.304 0.235-2.473 0.978-0.138 2.749 0.849 1.861 2.927-0.92 2.154-3.241 2.062-4.54 0.92-1.464-1.28-1.235-2.749-1.235-2.749z" fill="#CA5749"/>
<path d="m14.892 29.565s-1.137 1.194-0.304 3.159c0.839 1.967 3.043 2.629 5.11 1.513 2.061-1.127 2.915-4.123 1.106-6.692-1.821-2.59-5.37-3.076-8.113-1.024-2.486 1.867-2.958 5.989-0.957 8.618 0 0-1.374-2.875 0.613-4.848 1.273-1.272 2.545-0.726 2.545-0.726zm0.699 1.336c0.321-1.243 2.278-1.478 2.752 0.056 0 0 0.92-0.384 0.711-1.752-0.289-1.897-1.775-2.488-1.775-2.488s1.653-0.074 2.89 1.698c1.1 1.575 0.915 4.151-1.58 4.91-2.407 0.727-3.284-1.354-2.998-2.424z" fill="#44449A"/>
<path d="m33.557 64.237c1.381-1.252 1.43-3.744 0.089-5.207 0 0 0.988 1.644-0.092 2.937-0.698 0.827-1.484 0.572-1.484 0.572s0.612-0.776 8e-3 -1.903c-0.609-1.136-1.973-1.408-3.14-0.62-1.18 0.786-1.524 2.628-0.299 4.061 1.239 1.455 3.387 1.547 4.918 0.16zm-3.91-3.736c1.401-0.576 2.033 0.624 1.93 1.278-0.122 0.765-1.287 1.01-1.652 0.123 0 0-0.531 0.275-0.331 1.086 0.281 1.125 1.203 1.388 1.203 1.388s-0.983 0.137-1.819-0.856c-0.746-0.882-0.779-2.433 0.669-3.019z" fill="#F6B327"/>
<path d="m68.267 28.197s1.118-2.035 3.12-1.699c1.295 0.218 1.509 1.202 1.509 1.202s-1.188-0.166-1.997 1.156c-0.808 1.326-0.27 2.918 1.27 3.668 1.543 0.742 3.675-0.025 4.428-2.177 0.767-2.179-0.456-4.489-2.829-5.239-2.158-0.68-4.798 0.786-5.501 3.089zm5.276 2.133s0.605 0.387 1.333-0.32c1.006-0.978 0.719-2.103 0.719-2.103s0.746 0.945 0.216 2.427c-0.465 1.318-2.067 2.304-3.571 1.142-1.45-1.115-0.591-2.512 0.158-2.799 0.879-0.334 1.84 0.723 1.145 1.653z" fill="#5AB69B"/>
<path d="m29.346 5.929c0.668-1.028 1.592-0.845 1.592-0.845s-0.588 0.958 0.245 2.149c0.843 1.194 2.417 1.319 3.632 0.274 1.219-1.04 1.356-3.169-0.214-4.623-1.59-1.472-4.031-1.282-5.569 0.48-1.387 1.602-1.111 4.422 0.597 5.895 0 0-1.326-1.724-0.283-3.33zm4.092-0.417s0.568-0.381 0.225-1.271c-0.465-1.226-1.539-1.403-1.539-1.403s1.091-0.288 2.17 0.716c0.964 0.897 1.212 2.641-0.354 3.509-1.499 0.83-2.379-0.435-2.345-1.19 0.039-0.876 1.307-1.314 1.843-0.361z" fill="#02AA8A"/>
<path d="m36.207 55.099c0.016 0.113 0.036 0.236 0.06 0.368 0.045-0.123 0.083-0.247 0.118-0.371-0.384-0.728-0.6-1.557-0.593-2.449 4e-3 -0.482 0.086-0.922 0.199-1.34-0.564-1.09-1.517-2.026-2.803-2.622-2.717-1.25-6.429 0.233-7.748 3.128 0 0 1.814-2.476 4.394-1.694 1.662 0.506 1.778 1.829 1.778 1.829s-1.53-0.421-2.819 1.184c-1.288 1.604-0.839 3.788 1.053 5.023 1.432 0.937 3.45 0.793 4.933-0.492-0.098-0.428-0.159-0.687-0.159-0.687l1.587-1.877zm-6.095 1.696c-1.718-1.705-0.35-3.395 0.679-3.651 1.208-0.291 2.298 1.258 1.221 2.362 0 0 0.741 0.616 1.813-0.195 1.474-1.108 1.294-2.637 1.294-2.637s0.813 1.365-0.118 3.219c-0.84 1.657-3.112 2.672-4.889 0.902z" fill="#60458B"/>
<path d="m36.267 55.467c-0.023-0.132-0.043-0.256-0.06-0.368l-1.588 1.878s0.061 0.259 0.159 0.687c0.484-0.419 0.913-0.957 1.244-1.622 0.095-0.189 0.174-0.381 0.245-0.575z" fill="#60458B"/>
<path d="m36.385 55.096c0.364-1.289 0.208-2.626-0.394-3.789-0.113 0.419-0.195 0.859-0.199 1.34-7e-3 0.892 0.209 1.721 0.593 2.449z" fill="#60458B"/>
<path d="m25.787 44.307c-0.423-1.459-1.92-2.103-3.467-1.482-1.543 0.611-2.385 2.652-1.33 4.604 1.062 1.973 3.527 2.605 5.622 1.384 1.893-1.102 2.568-3.957 1.381-5.969 0 0 0.727 2.13-0.831 3.355-1 0.789-1.85 0.299-1.85 0.299s0.904-0.739 0.475-2.191zm-0.846 1.196c-0.335 0.847-1.725 0.853-1.94-0.263 0 0-0.681 0.186-0.645 1.171 0.045 1.357 1.041 1.887 1.041 1.887s-1.159-0.08-1.883-1.428c-0.642-1.195-0.3-2.994 1.512-3.316 1.752-0.311 2.194 1.22 1.915 1.949z" fill="#02AA8A"/>
<path d="m7.651 48.594c2.233 0.817 4.632-0.409 5.441-2.845 0.737-2.212-0.737-4.953-3.096-5.717 0 0 2.074 1.18 1.695 3.247-0.242 1.33-1.254 1.531-1.254 1.531s0.182-1.212-1.169-2.075c-1.351-0.85-2.998-0.313-3.792 1.265-0.797 1.573-0.034 3.78 2.175 4.594zm-1.102-4.509c1.17-1.481 2.594-0.576 2.883 0.208 0.335 0.901-0.772 1.881-1.728 1.152 0 0-0.408 0.626 0.314 1.381 0.992 1.043 2.167 0.769 2.167 0.769s-0.992 0.752-2.512 0.185c-1.348-0.496-2.342-2.166-1.124-3.695z" fill="#7DC2E3"/>
<path d="m21.07 59.285s-1.583 1.602-3.374 0.751c-1.151-0.542-1.091-1.51-1.091-1.51s1.067 0.459 2.171-0.562c1.109-1.026 1.018-2.656-0.219-3.761-1.24-1.104-3.442-0.955-4.72 0.866-1.288 1.835-0.754 4.311 1.268 5.648 1.836 1.204 4.689 0.524 5.965-1.432zm-4.377-3.397s-0.468-0.522-1.337-0.053c-1.189 0.648-1.228 1.779-1.228 1.779s-0.439-1.081 0.446-2.331c0.782-1.108 2.541-1.607 3.644-0.121 1.061 1.426-0.11 2.509-0.893 2.572-0.903 0.085-1.531-1.162-0.632-1.846z" fill="#CA5749"/>
<path d="m74.368 47.753c-0.524-2.811-3.26-4.534-6.28-3.877-2.734 0.605-4.657 3.81-4.004 6.718 0 0-0.053-2.877 2.31-3.752 1.529-0.563 2.365 0.352 2.365 0.352s-1.384 0.559-1.432 2.481c-0.051 1.927 1.52 3.3 3.627 3.15 2.12-0.149 3.933-2.292 3.414-5.072zm-5.54 0.804c0.737-0.902 2.428-0.358 2.245 1.069 0 0 0.899 0.044 1.238-1.167 0.471-1.668-0.528-2.705-0.528-2.705s1.383 0.555 1.734 2.473c0.316 1.704-0.804 3.752-3.133 3.435-2.244-0.297-2.186-2.339-1.556-3.105z" fill="#C1272F"/>
<rect x="6.284" y="110.57" width="68.534" height=".493" fill="#0E382A"/>
<path d="m55.874 115.67c0.149 0 0.292 0.06 0.425 0.171 0.053-0.134 0.098-0.254 0.135-0.351-0.186-0.142-0.425-0.209-0.717-0.209-0.621 0-0.935 0.343-0.935 1.031h-0.433v0.464h2.444l-0.403-0.501-0.426 0.037h-0.591c0-0.411 0.165-0.628 0.501-0.642z" fill="#696A6D"/>
<path d="m23.714 121.24c-0.239 0-0.456 0.202-0.456 0.448 0 0.27 0.217 0.456 0.456 0.456 0.261 0 0.463-0.216 0.463-0.448 0-0.262-0.217-0.456-0.463-0.456z" fill="#696A6D"/>
<path d="m24.91 121.24c-0.247 0-0.463 0.202-0.463 0.448 0 0.27 0.216 0.456 0.463 0.456 0.261 0 0.456-0.216 0.456-0.448 0-0.262-0.217-0.456-0.456-0.456z" fill="#696A6D"/>
<path d="m52.248 117.53l0.135 0.972v0.732c0 0.397-0.18 0.591-0.531 0.591-0.239 0-0.456-0.09-0.643-0.276v-1.929l-0.733 0.164v1.45c0 0.397-0.179 0.591-0.53 0.591-0.262 0-0.479-0.09-0.666-0.262v-1.943l-0.732 0.164-0.015 1.443c0 0.396-0.18 0.59-0.538 0.59h-0.711c-0.359 0-0.538-0.194-0.538-0.583v-1.906l-0.889 0.202 0.142 0.972v0.732c0 0.397-0.18 0.591-0.532 0.591-0.246 0-0.456-0.09-0.642-0.276v-1.929l-0.74 0.164v1.45c0 0.397-0.18 0.591-0.531 0.591-0.247 0-0.463-0.083-0.65-0.254v-1.951l-0.734 0.164-0.014 1.443c0 0.396-0.179 0.59-0.539 0.59h-0.948c-0.366 0-0.546-0.202-0.546-0.605v-2.504c-0.276 0.052-0.576 0.119-0.898 0.201l0.046 0.337h-0.239c-0.524 0-0.95 0.15-1.272 0.449-0.321 0.291-0.478 0.68-0.478 1.166 0 0.896 0.486 1.465 1.286 1.465 0.381-8e-3 0.703-0.075 0.964-0.216 0.239 0.254 0.553 0.38 0.949 0.38h1.316c0.337 0 0.598-0.097 0.8-0.284 0.052-0.052 0.105-0.104 0.142-0.157 0.292 0.292 0.628 0.441 1.009 0.441 0.404 0 0.703-0.141 0.905-0.426 0.277 0.285 0.605 0.426 1.002 0.426 0.284 0 0.523-0.074 0.71-0.224 0.202 0.15 0.448 0.224 0.747 0.224h1.062c0.336 0 0.598-0.097 0.8-0.284 0.052-0.052 0.105-0.104 0.142-0.164 0.291 0.299 0.628 0.448 1.017 0.448 0.403 0 0.703-0.141 0.904-0.426 0.277 0.285 0.613 0.426 1.01 0.426 0.657 0 1.083-0.426 1.083-1.084v-2.078l-0.882 0.202zm-12.858 2.085c-0.209 0.061-0.427 0.09-0.65 0.09-0.456 0-0.688-0.329-0.696-0.979 0-0.277 0.09-0.509 0.277-0.696 0.187-0.186 0.412-0.276 0.665-0.283 0.128 0 0.262-8e-3 0.404-0.016v1.884z" fill="#696A6D"/>
<path d="m38.83 115.95c0-0.276-0.202-0.47-0.449-0.47-0.261 0-0.456 0.216-0.456 0.455 0 0.262 0.195 0.464 0.456 0.464s0.449-0.217 0.449-0.449z" fill="#696A6D"/>
<path d="m33.424 116.13c0-0.262-0.202-0.456-0.463-0.456-0.239 0-0.448 0.194-0.448 0.456s0.209 0.449 0.448 0.449c0.261 0 0.463-0.203 0.463-0.449z" fill="#696A6D"/>
<path d="m34.471 118.42c-0.591-0.844-1.173-1.263-1.741-1.263-0.659 0-1.167 0.591-1.249 1.57l0.777-0.09c-0.067-0.201-0.104-0.366-0.104-0.501 0-0.276 0.112-0.418 0.336-0.418 0.306 0 0.673 0.276 1.084 0.837 0.321 0.426 0.568 0.852 0.747 1.263h-3.393c-0.366 0-0.546-0.194-0.546-0.59v-1.929l-0.89 0.194 0.15 0.964v0.771c0 0.396-0.179 0.59-0.547 0.59h-0.903c-0.367 0-0.546-0.209-0.546-0.62v-1.869l-0.89 0.202 0.15 1.001 7e-3 1.877c0 0.748-0.344 1.226-1.039 1.442l0.164 0.292c0.98-0.269 1.51-0.837 1.601-1.704 0.111 0.038 0.239 0.052 0.373 0.052h1.278c0.284 0 0.524-0.074 0.718-0.224 0.187 0.15 0.434 0.224 0.733 0.224h4.62c-0.052-0.606-0.344-1.293-0.89-2.071z" fill="#696A6D"/>
<path d="m28.819 121.24c-0.239 0-0.456 0.202-0.456 0.448 0 0.27 0.217 0.456 0.456 0.456 0.262 0 0.464-0.216 0.464-0.448 0-0.262-0.217-0.456-0.464-0.456z" fill="#696A6D"/>
<path d="m21.224 115.95c0-0.276-0.202-0.47-0.448-0.47-0.262 0-0.456 0.216-0.456 0.455 0 0.262 0.194 0.464 0.456 0.464s0.448-0.217 0.448-0.449z" fill="#696A6D"/>
<path d="m39.577 116.4c0.262 0 0.448-0.217 0.448-0.449 0-0.276-0.209-0.47-0.448-0.47-0.263 0-0.463 0.216-0.463 0.455 0 0.262 0.2 0.464 0.463 0.464z" fill="#696A6D"/>
<path d="m30.015 121.24c-0.246 0-0.448 0.202-0.448 0.448 0 0.27 0.202 0.456 0.448 0.456 0.262 0 0.456-0.216 0.456-0.448 0-0.262-0.208-0.456-0.456-0.456z" fill="#696A6D"/>
<path d="m21.972 116.4c0.262 0 0.448-0.217 0.448-0.449 0-0.276-0.209-0.47-0.448-0.47-0.261 0-0.464 0.216-0.464 0.455 0 0.262 0.203 0.464 0.464 0.464z" fill="#696A6D"/>
<path d="m24.708 117.53l0.127 0.957v0.74c0 0.396-0.18 0.59-0.546 0.59h-1.226c-0.366 0-0.546-0.202-0.546-0.605v-2.504c-0.276 0.052-0.575 0.119-0.896 0.201l0.044 0.337h-0.239c-0.523 0-0.949 0.15-1.271 0.449-0.321 0.291-0.478 0.68-0.478 1.166 0 0.896 0.486 1.465 1.286 1.465 0.381-8e-3 0.702-0.075 0.964-0.216 0.239 0.254 0.554 0.38 0.95 0.38h1.592c0.68 0 1.106-0.419 1.106-1.084v-2.071l-0.867 0.195zm-2.923 2.085c-0.209 0.061-0.426 0.09-0.65 0.09-0.456 0-0.688-0.329-0.695-0.979 0-0.277 0.089-0.509 0.276-0.696 0.187-0.186 0.411-0.276 0.666-0.283 0.126 0 0.261-8e-3 0.403-0.016v1.884z" fill="#696A6D"/>
<path d="m60.18 117.19c-0.576 0-1.024 0.164-1.353 0.501-0.33 0.336-0.493 0.777-0.493 1.33 0 0.277 0.074 0.546 0.224 0.8h-1.802v-2.579h-1.092c-0.522 0-0.949 0.172-1.27 0.509-0.321 0.336-0.479 0.769-0.479 1.316 0 0.448 0.143 0.8 0.418 1.061 0.247 0.246 0.576 0.366 0.981 0.366h0.709c-0.037 0.658-0.373 1.114-1.016 1.36l0.157 0.292c0.918-0.239 1.45-0.793 1.577-1.652h2.766c1.114 0 1.675-0.441 1.675-1.315v-1.04l0.067-0.777c-0.351-0.112-0.71-0.172-1.069-0.172zm-4.179 2.631h-0.628c-0.464 0-0.695-0.299-0.695-0.889 0-0.778 0.352-1.256 0.942-1.256h0.381v2.145zm3.716 0c-0.427 0-0.644-0.314-0.644-0.942 0-0.784 0.315-1.173 0.942-1.173 0.143 0 0.277 0.015 0.389 0.052l0.06 0.434c0.038 0.247 0.052 0.456 0.052 0.628 0 0.665-0.269 1.001-0.799 1.001z" fill="#696A6D"/>
</svg>
